<?xml version="1.0" encoding="UTF-8" standalone="no"?>
<!-- Created with Inkscape (http://www.inkscape.org/) -->

<svg
   xmlns:dc="http://purl.org/dc/elements/1.1/"
   xmlns:cc="http://creativecommons.org/ns#"
   xmlns:rdf="http://www.w3.org/1999/02/22-rdf-syntax-ns#"
   xmlns:svg="http://www.w3.org/2000/svg"
   xmlns="http://www.w3.org/2000/svg"
   xmlns:sodipodi="http://sodipodi.sourceforge.net/DTD/sodipodi-0.dtd"
   xmlns:inkscape="http://www.inkscape.org/namespaces/inkscape"
   width="135.48022mm"
   height="135.47066mm"
   viewBox="0 0 135.48023 135.47066"
   version="1.1"
   id="svg8"
   inkscape:version="0.92.4 (5da689c313, 2019-01-14)"
   sodipodi:docname="areas.svg">
  <defs
     id="defs2" />
  <sodipodi:namedview
     id="base"
     pagecolor="#ffffff"
     bordercolor="#666666"
     borderopacity="1.0"
     inkscape:pageopacity="0.0"
     inkscape:pageshadow="2"
     inkscape:zoom="1.3984018"
     inkscape:cx="274.52405"
     inkscape:cy="257.82261"
     inkscape:document-units="mm"
     inkscape:current-layer="layer1"
     showgrid="false"
     inkscape:window-width="1309"
     inkscape:window-height="821"
     inkscape:window-x="2175"
     inkscape:window-y="47"
     inkscape:window-maximized="0" />
  <metadata
     id="metadata5">
    <rdf:RDF>
      <cc:Work
         rdf:about="">
        <dc:format>image/svg+xml</dc:format>
        <dc:type
           rdf:resource="http://purl.org/dc/dcmitype/StillImage" />
        <dc:title />
      </cc:Work>
    </rdf:RDF>
  </metadata>
  <g
     inkscape:label="Ebene 1"
     inkscape:groupmode="layer"
     id="layer1"
     transform="translate(-38.72444,-53.131826)">
    <path
       style="fill:#99f4fe;stroke-width:0.26458332"
       d="m 70.59513,130.66644 c -0.409122,0.29632 -0.721507,0.10178 -1.002703,-0.25101 -0.787928,-0.7014 -1.539925,-1.46204 -2.350187,-2.12662 -0.5891,-0.21303 -1.178202,-0.42605 -1.767305,-0.63907 -0.373364,-0.88802 -0.650308,-1.80457 -0.816457,-2.75391 -0.302876,-0.52594 -0.844905,-0.92529 -1.241207,-1.40178 -0.468547,-0.49542 -0.937092,-0.99084 -1.405639,-1.48626 0.0685,-0.33818 -0.208078,-0.91801 0.30788,-0.94283 0.619725,-0.0365 0.09754,-0.4868 -0.03422,-0.79561 -0.217199,-0.53823 -0.88616,-0.59197 -1.32994,-0.88721 -0.347638,-0.17427 -0.588899,-0.5571 -0.769392,-0.88811 -0.05963,-0.34501 -0.313636,-0.73845 -0.262626,-1.05589 0.27249,-0.31897 0.68049,-0.58744 0.868002,-0.93807 -0.01871,-0.68136 -0.162049,-1.40268 -0.103195,-2.05916 0.190125,-0.33778 0.746567,-0.59232 0.509068,-1.02726 -0.105375,-0.48516 -0.360898,-0.97705 -0.06571,-1.44427 0.103177,-0.4039 0.364244,-0.8272 0.369965,-1.21912 -0.338042,-0.44324 -0.564175,-1.00565 -0.972066,-1.37451 -0.474951,-0.27019 -0.949901,-0.54039 -1.424851,-0.81058 -0.0011,-0.40124 -0.0023,-0.80248 -0.0034,-1.20372 0.663106,-0.21431 1.289363,-0.6292 2.012613,-0.51607 0.459834,-0.0342 0.9843,0.0692 1.404023,-0.0504 0.325043,-0.36928 0.570403,-0.85786 1.116365,-0.89635 1.022697,-0.28858 2.029687,-0.68124 3.062121,-0.90531 0.496939,0.0468 1.072272,-0.1584 1.453571,0.26017 1.586945,1.09875 3.163019,2.21434 4.841931,3.17071 0.546151,-0.0305 1.146129,0.0699 1.660291,-0.0383 0.272065,-0.18814 0.54413,-0.83095 0.816195,-0.3435 0.418546,0.96937 0.718237,2.01354 1.091513,3.01141 -0.176359,0.46386 -0.352718,0.92772 -0.529077,1.39158 0.129294,0.44398 0.553462,0.48039 0.944598,0.56247 0.744731,0.17865 1.489459,0.35731 2.234188,0.53597 0.07977,0.4558 -0.03353,0.80729 -0.49327,0.97158 -0.425584,0.27141 -0.886788,0.50814 -1.079824,1.00603 -0.283774,0.45915 -0.567544,0.91831 -0.851315,1.37746 -0.397882,0.0731 -0.955483,-0.19689 -1.179072,0.25068 -0.377494,0.50442 -0.883405,0.93946 -1.182534,1.48621 -0.216284,0.61702 -0.331149,1.31311 -0.609919,1.88142 -0.626705,0.37358 -1.253407,0.74717 -1.880107,1.12076 0.728055,0.008 1.456109,0.0156 2.184164,0.0234 0.17558,0.33334 0.709265,0.58516 0.608548,0.98141 -0.278706,0.97773 -0.444917,1.9788 -0.60102,2.98197 0.309641,0.19982 0.991666,0.14561 0.848705,0.65419 7.9e-5,0.43617 0.06476,0.89132 -0.272866,1.22826 -0.145175,0.55139 -0.642367,0.0929 -1.001412,0.0308 -0.355709,-0.0955 -0.692731,-0.30138 -1.061399,-0.32034 -0.384432,0.68986 -0.902304,1.32213 -1.200031,2.04941 -0.107532,0.40208 -0.215064,0.80415 -0.322596,1.20623 -0.173227,0.0646 -0.348264,0.12785 -0.520409,0.19323 z"
       id="18"
       inkscape:connector-curvature="0"
       inkscape:label="#18">
      <title
         id="title5171">Telkin Pass</title>
    </path>
    <path
       style="fill:#fefc5d;stroke-width:0.26458332"
       d="m 45.788608,119.80476 c -0.127287,0.2529 -0.453519,0.48865 -0.217299,0.77288 0.156338,0.20928 0.133528,0.68684 0.428675,0.68749 0.404374,-0.12727 0.237831,0.31637 0.268698,0.5626 0.07735,0.33706 -0.133113,0.58611 -0.316804,0.84336 -0.204457,0.30305 -0.408914,0.6061 -0.613371,0.90915 0.236171,0.10917 0.699735,-0.0154 0.760427,0.27344 0.0526,0.339 0.180237,0.68304 0.189896,1.01894 -0.310151,0.80475 -0.554332,1.64522 -0.905487,2.42764 -0.144746,0.22336 -0.536809,0.52622 -0.04193,0.4856 1.175836,0.18313 2.352021,0.40995 3.527538,0.56641 1.09711,-0.20218 2.19423,-0.40431 3.291358,-0.60639 1.133456,0.51842 2.27236,1.0263 3.343071,1.66811 0.295393,0.16253 0.574916,0.38478 0.932491,0.31329 1.307638,0.0147 2.615272,0.0297 3.922904,0.0448 0.771478,0.47195 1.542834,0.9441 2.314071,1.41645 0.773981,-0.12613 1.541472,-0.3282 2.331819,-0.26613 0.204709,-0.0735 0.747967,0.16021 0.701848,-0.14095 -0.113321,-1.0116 -0.167587,-2.03373 -0.317752,-3.03876 -0.267159,-0.93102 -0.417465,-1.9023 -0.860472,-2.77274 -0.142195,-0.37586 -0.30335,-0.73924 -0.624165,-0.99755 -0.689494,-0.73136 -1.379225,-1.4625 -2.068953,-2.19363 -3.311733,-0.47871 -6.61993,-0.98774 -9.93378,-1.44814 -2.037595,-0.1753 -4.07519,-0.35059 -6.112786,-0.52589 z"
       id="7"
       inkscape:connector-curvature="0"
       inkscape:label="#7">
      <title
         id="title5186">Grand Valley</title>
    </path>
    <path
       style="fill:#d477f5;stroke-width:0.26458332"
       d="m 100.30828,136.47764 c -0.9254,0.57443 -1.979137,1.04223 -2.824145,1.68346 -0.276733,0.82076 -0.677174,1.62038 -0.547746,2.50991 -0.12288,0.8538 0.626412,1.47259 0.945103,2.2074 0.468534,0.88367 1.100788,1.73941 1.466458,2.64069 -0.03523,0.60132 -0.167936,1.09216 -0.881475,0.93186 -0.53258,0.0801 -1.145445,-0.002 -1.627563,0.18008 -0.705578,0.79495 -1.379239,1.62096 -2.187136,2.31664 0.138718,0.98189 0.437798,1.98909 0.479174,2.95582 -0.309746,0.36672 -0.378056,1.13713 -0.844357,1.24289 -0.561631,-0.12396 -0.950426,0.11129 -1.211247,0.61115 -0.279572,0.64262 -0.478554,1.32987 -0.726789,1.98973 0.285546,0.51298 0.746313,0.98847 0.926372,1.52402 -0.05062,0.7051 -0.355023,1.44046 -0.244409,2.12633 0.492961,1.08255 0.85825,2.24292 1.428065,3.27858 0.833464,0.79495 0.963131,1.99776 1.415852,3.01333 0.481081,1.04203 0.643519,2.17751 0.902366,3.27951 0.550104,1.0805 1.020501,2.2123 1.877828,3.09506 0.759613,0.82528 1.290018,1.80691 1.835549,2.77812 0.52826,-0.03 -0.602144,-0.70507 -0.24805,-1.18913 0.0449,-0.83359 -0.18591,-1.7325 0.36177,-2.44693 0.40542,-1.05234 1.15613,-1.8782 1.87685,-2.7238 0.2984,-1.62692 0.20643,-3.31204 0.47324,-4.93386 0.3064,-0.70701 0.4883,-1.51825 0.87086,-2.16162 1.99303,-1.21742 4.054,-2.34612 6.00467,-3.61885 0.68767,-0.63935 1.28009,-1.41315 2.20052,-1.7245 0.61911,-0.20805 1.04418,-0.6776 1.46658,-1.15104 0.64481,-0.17623 1.37894,-0.13751 1.9606,-0.46561 0.10403,-0.66152 -0.67088,-0.97077 -1.00217,-1.45774 -0.41452,-0.3669 -0.81637,-0.73715 -0.46957,-1.30539 0.29487,-0.52928 0.0141,-0.98747 -0.26686,-1.44563 -0.56352,-0.91191 -1.46088,-1.58149 -2.15858,-2.39601 -1.45014,-1.52944 -2.98328,-3.02839 -4.26367,-4.68535 -0.31453,-1.51613 -0.6294,-3.03218 -0.94453,-4.54819 -1.1988,-0.68805 -2.36303,-1.50023 -3.58342,-2.11098 -0.82005,-1e-5 -1.6401,1e-5 -2.46014,5e-5 z"
       id="1"
       inkscape:connector-curvature="0"
       inkscape:label="#1">
      <title
         id="title5204">Unstable Cliffs</title>
    </path>
    <path
       style="fill:#e0cf7b;stroke-width:0.26458332"
       d="m 80.760117,146.00471 c -0.781992,0.2585 -1.23774,0.7121 -1.021644,1.56842 0.201655,0.98604 -0.844576,0.47705 -0.905687,-0.19112 -0.435489,-0.83293 -0.782587,0.0163 -0.792578,0.45987 -0.498602,0.48507 -1.484704,-6e-5 -1.777378,0.5046 -0.102918,1.11046 -1.248204,1.61498 -1.751008,2.47314 -0.03449,0.86021 -0.412175,1.77348 -0.225348,2.59952 0.406342,0.54536 0.416674,1.56967 1.129898,1.74481 1.004297,-0.0601 0.505465,0.85473 0.451985,1.48064 -0.143835,0.84202 -0.255916,1.68899 -0.383887,2.53348 0.39764,0.49543 1.392802,0.70073 1.343586,1.41315 0.108731,0.64721 -0.344434,1.63109 0.532268,1.81817 0.637704,0.51408 1.460275,0.0662 2.204212,0.26087 0.73928,0.0943 -1.080794,0.38137 -0.619813,1.0605 0.852697,-0.1714 1.274072,0.0885 1.058333,0.98555 0.654347,0.42133 1.278761,1.2704 2.153875,1.13112 -0.06481,0.70377 -0.04541,1.49772 -0.997624,1.2511 -0.633058,0.10981 -1.453126,-0.14428 -1.772603,0.57438 -0.328234,0.66605 -1.363707,-0.12579 -1.545759,0.77678 -0.529984,0.47742 -0.532051,1.12142 -0.483722,1.78125 -0.0416,0.69873 0.831302,1.07693 1.303605,1.48713 0.587959,0.43147 1.454134,0.70501 1.871395,1.23359 0.23904,0.80912 -0.598485,1.12556 -1.073327,1.60774 -0.650275,0.99052 -0.910802,2.25531 -1.408174,3.35344 0.792599,0.23478 1.623883,0.57677 2.486957,0.6735 1.428808,0.41342 2.910128,0.44813 4.371805,0.1948 1.288979,-0.0953 2.612946,-0.37458 3.880184,-0.35565 1.774835,0.9872 3.701925,1.74001 5.212244,3.13471 1.495295,1.05275 2.757678,2.3808 4.124457,3.57733 0.845132,0.50696 1.634672,1.18436 2.512791,1.59076 1.34072,0.027 2.70693,0.19733 4.03248,0.13813 0.98245,-0.40821 1.93514,-0.96573 3.03742,-0.77268 1.31305,0.0474 2.67196,-0.18468 3.8927,0.42378 1.01034,0.363 2.0275,0.75088 3.12627,0.6124 0.68705,-0.0125 1.51167,0.23684 1.75287,-0.62426 0.61655,-0.58857 0.44635,-1.49806 0.37665,-2.24899 -0.59975,-1.12667 -1.19718,-2.25433 -1.33275,-3.54349 -0.0461,-0.87742 -1.20437,-0.68556 -1.79451,-0.99649 -0.70714,-0.37293 -1.56183,-0.12885 -2.25667,-0.32581 -0.98809,-0.83103 -1.70126,-2.09138 -3.0356,-2.3817 -1.28635,-0.70846 -2.76421,-0.37074 -4.16656,-0.44554 -0.81182,-0.0876 -1.76982,0.27715 -2.38507,-0.41879 -0.6379,-0.23975 -0.75437,-1.22437 -1.39625,-1.30147 -0.698095,-1.4599 -1.764889,-2.67059 -2.737101,-3.94231 -0.592558,-1.11975 -1.208722,-2.2315 -1.316207,-3.51858 -0.41212,-1.40105 -0.945456,-2.79665 -1.502746,-4.13932 -1.039487,-1.10359 -1.299519,-2.68228 -1.972685,-4.00918 0.01913,-0.73931 0.453659,-1.56748 0.197622,-2.24793 -0.267091,-0.59117 -1.105842,-1.11343 -0.612706,-1.79626 0.287793,-0.70767 0.423262,-1.68276 1.134184,-2.04226 0.867503,0.28242 1.069422,-0.54686 1.403541,-1.15491 0.05141,-0.90163 -0.236138,-1.86399 -0.310349,-2.788 -0.939167,-0.70729 -1.775275,-1.56342 -2.806546,-2.13785 -0.813144,0.35927 -1.626185,0.71876 -2.439128,1.07849 0.23241,0.82303 -0.865362,0.76058 -1.359688,1.09969 -0.846548,0.42997 -1.8067,-0.15399 -2.70487,-0.18476 -0.794364,-0.13845 -1.588741,-0.27681 -2.38311,-0.41522 -0.40408,1.14476 -0.642567,0.0746 -0.914673,-0.54984 -0.27601,-0.85567 -0.709117,-1.51656 -1.405561,-2.09043 z"
       id="4"
       inkscape:connector-curvature="0"
       inkscape:label="#4">
      <title
         id="title5207">Shore Cliffs</title>
    </path>
    <path
       style="fill:#c5e07b;stroke-width:0.26458332"
       d="m 80.607156,63.850552 c -1.684523,2.029715 -4.428551,2.524444 -6.658938,3.763411 -1.182889,0.604362 -2.645299,0.301764 -3.92157,0.265768 -1.995956,-0.959654 -4.307956,-1.235974 -6.399231,-0.404505 -1.653012,0.644079 -3.363551,0.879872 -5.130541,0.74095 -1.897224,2.095224 -4.382738,3.529326 -6.220004,5.69818 -1.45936,1.399636 -2.984101,2.751648 -3.675374,4.710776 -0.466382,1.096141 -1.498535,2.125923 -2.555787,1.053133 -1.438352,-0.911641 -1.998965,0.472414 -2.141823,1.735447 -0.94634,1.198129 2.253865,1.683287 0.392305,2.531219 -1.567289,0.65614 0.340509,2.433283 -0.87816,3.3343 -1.390916,1.326917 1.564983,0.826815 2.376826,1.227907 2.757383,0.598991 5.340323,2.066947 8.189631,2.198622 1.258012,-0.71968 3.210447,-0.695119 3.609419,-2.336435 0.722893,-1.281552 1.521554,-2.744274 2.536451,-3.720711 1.452888,-0.125095 2.977805,-0.926558 4.386527,-0.634468 1.512653,0.839398 3.172916,1.154237 4.87855,1.307962 1.003213,-1.013891 2.006425,-2.027782 3.009635,-3.041674 0.99835,0.593072 2.150748,0.779473 2.26381,-0.699002 0.47975,-1.416349 1.911665,-2.201852 2.820633,-3.333827 1.283515,-0.166344 1.943727,1.649553 3.068171,0.696554 0.995022,-0.928983 0.04664,-2.409455 1.828888,-0.870721 1.548492,0.470701 3.056697,1.37939 4.702558,0.78913 1.263809,-0.169249 2.578328,-0.646416 3.660781,0.2849 1.474933,1.268323 2.772732,-0.713942 4.137228,-1.16476 1.793965,-0.536198 3.573367,-1.406005 5.375959,-1.741325 1.93576,0.362812 3.75626,1.025039 5.42779,2.074435 1.17432,-0.720728 1.44818,-2.160134 2.12959,-3.274218 -0.61141,-2.007897 -1.88111,-4.067759 -3.96356,-4.708757 -1.06742,-0.0017 -1.53015,1.07597 -2.33166,-0.264583 -1.594568,-0.378339 -1.763613,1.073173 -2.940191,-0.03025 -1.33558,0.521977 -1.337527,-0.504201 -2.67549,-0.234329 -0.624449,-0.577779 -2.020139,-0.614847 -2.945331,-0.633863 -1.078897,0.811838 -2.204842,0.636342 -3.349014,0.07197 -0.994212,0.162433 -2.196285,-0.51539 -2.737414,-1.279266 0.09534,-1.251942 -0.01685,-2.412277 -1.309354,-2.93724 -1.189082,-0.986004 -2.648498,-1.37639 -4.172148,-1.17473 -0.263054,0 -0.526108,0 -0.789162,0 z"
       id="9"
       inkscape:connector-curvature="0">
      <title
         id="title5150">Boreal Coasts</title>
    </path>
    <path
       style="fill:#fe5dc5;stroke-width:0.26458332"
       d="m 171.51116,65.243231 c -2.81792,1.352398 -5.66349,2.65191 -8.31861,4.303423 -1.43361,0.860722 -2.79327,1.848701 -4.19793,2.759195 -0.047,1.095349 0.84878,2.014445 1.2712,2.989503 0.46704,1.059852 1.42869,1.251498 2.49321,1.263182 2.47185,0.330209 5.1259,0.763721 7.44421,-0.410542 0.86245,-0.414378 2.15469,-0.555154 2.6385,-1.362062 0.11687,-2.271088 -0.72925,-4.38836 -1.17038,-6.575028 -0.0265,-0.98097 -0.41993,-2.006743 -0.1602,-2.967671 z m -49.63728,4.37441 c -1.03216,0.436698 -1.28824,1.867623 -1.63954,2.880244 -0.48082,1.473189 -0.96163,2.946379 -1.44244,4.419569 -1.3405,0.505916 -2.60411,1.428038 -3.99456,1.663117 -1.69536,-0.113265 -3.3907,-0.226911 -5.08602,-0.340718 -1.08181,1.044996 -1.70768,2.729534 -3.31711,3.03444 -1.37699,0.05683 -1.21853,1.218374 -1.21822,2.266444 -0.55711,1.331373 0.97868,1.478471 1.30248,2.515976 0.83248,1.579798 1.43469,3.295023 1.45621,5.096563 0.94401,1.756884 2.55257,3.129558 3.55379,4.776041 -0.11383,1.031034 1.01074,1.328426 0.38317,2.503922 -0.54472,1.285893 0.77934,2.469321 0.54319,3.686291 -0.43858,0.96669 1.08537,1.56907 1.50948,2.37563 0.78427,0.73894 1.42123,1.83968 2.29799,2.3512 1.27051,-0.30812 2.62385,0.15568 3.25845,1.34323 0.64893,0.982 1.58574,1.86792 2.06189,2.90779 0.0865,1.16657 -0.17054,2.48619 0.12573,3.55925 0.71036,0.66188 1.36216,1.50653 2.42465,1.0746 0.98142,-0.12802 2.16424,-0.41769 2.82141,-1.14682 0.58761,-0.64439 1.61033,-1.30134 2.52721,-1.09248 0.93139,0.0728 2.41287,0.71585 1.82689,-0.78426 0.26307,-1.38974 -1.89226,-0.62519 -2.13512,-1.78506 -0.60587,-1.12862 -0.0577,-2.53828 -0.17299,-3.78639 -0.12767,-1.30133 0.87468,-2.31262 1.32331,-3.46588 1.55901,0.05 3.21722,-0.0802 4.61489,-0.7642 1.02887,-0.62873 1.80842,-1.47461 2.274,-2.5931 0.604,-1.203473 2.12143,-1.529117 3.05314,-2.45939 0.88926,0.08842 2.08728,-0.740799 2.74665,0.03106 0.78158,0.987383 2.25856,0.493816 3.36823,0.78246 1.21572,-0.255376 1.61199,0.80708 1.99282,1.74585 -0.0258,1.00313 1.29443,1.728 1.73985,0.69016 0.74579,-0.71095 0.33265,-1.8787 0.86394,-2.526675 0.77269,-0.89677 1.85034,-0.827627 2.93143,-0.74858 3.04178,0.0176 6.14225,0.290007 9.13213,-0.313994 1.66685,-0.19258 0.27689,-1.096328 -0.33556,-1.790454 -1.04805,-1.143328 -2.04056,-2.362229 -3.57388,-2.846094 -1.18586,-0.206965 -1.3079,-1.338808 -1.6239,-2.302333 0.0983,-1.108588 -1.7432,-1.044614 -1.01317,-2.162445 0.79529,-0.514297 1.34753,-1.582242 0.5124,-2.28656 -0.72126,-0.836459 -1.54536,-0.948733 -2.47235,-0.344197 -1.03798,0.07286 -1.78416,-1.043609 -2.70025,-1.454211 -0.71884,-0.672499 -2.05211,-0.704223 -2.60198,-1.37964 0.0932,-0.900383 -0.84962,-1.917301 -1.59494,-2.161292 -1.16066,0.185026 -1.12122,0.743845 -1.69902,-0.752057 -0.55038,-1.274444 -1.67204,-2.278221 -2.77643,-3.043159 -1.00674,-0.433985 -2.24726,-0.730085 -3.0148,-1.462897 -0.32469,-0.926921 -0.33456,-2.258305 -1.59839,-2.343303 -1.47725,-0.578789 -3.137,-0.761476 -4.68389,-0.922972 -0.99676,0.374936 -2.03002,0.843612 -2.76956,-0.213595 -1.4632,-1.346421 -3.42171,-1.651283 -5.29106,-2.059841 -1.05279,-0.08036 -2.14199,0.534726 -3.14028,-0.117532 -0.24995,-0.08457 -0.49991,-0.169138 -0.74987,-0.253708 z m 11.06651,1.171505 c -0.18188,1.294116 1.31629,1.098998 2.15136,1.414289 1.36329,0.278167 2.77482,0.354101 4.16609,0.372689 -2.15134,-0.488377 -4.38477,-0.63273 -6.31745,-1.786978 z"
       id="16"
       inkscape:connector-curvature="0"
       inkscape:label="#16">
      <title
         id="title5159">Soggy Woodlands</title>
    </path>
    <path
       style="fill:#e0c37b;stroke-width:0.26458332"
       d="m 116.48868,123.46707 c -0.84779,0.328 -1.61633,1.00789 -2.57555,0.84129 -0.97949,0.0666 -0.83795,0.78852 -0.65371,1.53487 0.0193,1.36165 1.12469,2.3219 1.71204,3.47361 0.83282,0.68936 1.88771,1.18909 2.57848,1.99996 0.50419,1.14696 1.28784,2.22727 1.61197,3.41744 -0.0105,0.71088 -0.10766,1.44603 0.44017,1.99829 0.25363,0.81889 0.92623,0.95593 1.29685,1.4971 0.99931,1.85154 1.7224,3.87771 3.16113,5.45164 0.44342,0.71753 1.24963,1.31093 1.45132,2.11121 -0.10125,0.54538 -0.005,1.50883 0.76382,1.11802 1.48095,-0.57463 3.10537,-0.86456 4.34194,-1.92451 0.54843,-0.51188 1.36466,-0.85808 1.99438,-0.26517 0.67806,0.31788 1.27888,1.06431 2.08236,0.6851 1.7524,-0.22395 3.35422,-1.0213 5.02852,-1.54268 1.28346,0.72288 2.72412,1.22085 3.91013,2.08296 0.49357,0.5839 1.09553,0.97034 1.86967,1.04381 0.77158,0.29199 1.81331,0.16462 2.22519,1.01483 0.52488,0.43805 0.77516,1.44903 1.51484,1.43893 0.76778,0.0215 1.19152,0.92422 1.8071,1.33535 0.73222,0.39234 0.89259,1.11583 1.13155,1.6693 0.80582,0.19264 1.00119,0.88067 1.15163,1.60452 0.67141,0.46886 1.19936,1.42299 2.13359,1.21 0.92559,0.31264 1.24907,-0.47858 1.18272,-1.24844 -0.70355,-0.84394 -0.24966,-0.9948 0.66956,-0.86702 0.72883,0.21549 1.25764,-0.57713 1.51114,-1.08994 0.055,-0.57668 -0.74358,-1.59615 0.12654,-1.75013 0.66744,-0.362 1.52497,-0.54364 2.07939,-1.0127 0.28297,-0.6567 0.60969,-1.31326 0.14386,-1.9699 -0.50569,-0.63933 0.12652,-1.29364 0.82646,-1.0565 0.55008,-0.36263 1.43189,-0.62906 1.75786,-1.10932 -1.00959,-4.1124 -1.78537,-8.28603 -3.0203,-12.33947 0.25332,-1.00677 0.75156,-1.97772 0.61857,-3.04064 -1.53002,-0.18047 -3.07793,-0.52089 -4.59681,-0.60164 -0.91849,0.40244 -1.96243,0.64945 -2.80362,1.14782 -0.5313,0.81344 -1.06298,1.62663 -1.59489,2.43968 -1.22805,-0.0356 -2.49287,0.0826 -3.69918,-0.0441 -0.83029,-0.53957 -2.0464,-0.6857 -2.36708,-1.74514 -0.28302,-0.66436 -1.26053,-0.16832 -1.8521,-0.31713 -0.76199,-0.16042 -1.37273,0.1871 -1.95065,0.64486 -0.73514,0.29188 -1.61796,0.13595 -2.41137,0.2507 -0.54983,-0.49498 -1.04563,-1.22647 -1.82804,-0.68553 -1.45288,0.50029 -3.04845,0.69262 -4.26875,1.69528 -0.89043,-0.2191 -1.76408,-0.77236 -2.6657,-0.77455 -1.07227,0.14986 -2.17041,0.82113 -3.2057,0.22375 -1.23766,-0.38736 -2.43679,-1.00929 -3.7683,-0.82534 -0.87073,0.28408 -0.85083,-0.81622 -1.20986,-1.32751 -0.57364,-0.51255 -1.75853,-0.56813 -1.74709,-1.50745 0.087,-0.91502 -0.7629,-1.07854 -1.43476,-1.38456 -0.82004,-0.13428 -1.06691,-0.82561 -1.30878,-1.52235 -0.32884,-0.92931 -1.48502,-1.30761 -2.16054,-1.97862 z"
       id="13"
       inkscape:connector-curvature="0"
       inkscape:label="#13">
      <title
         id="title5198">Tunnel Dunes</title>
    </path>
    <path
       style="fill:#7bb9e0;stroke-width:0.26458332"
       d="m 67.277736,146.45223 c -0.502835,0.35133 -0.711547,0.85244 -0.716613,1.45726 -0.151937,0.6306 -0.113126,1.38832 -0.382548,1.94068 -0.491699,0.55837 -1.085672,0.11976 -1.653643,-0.0627 -0.348434,-0.42401 -0.369652,-1.37435 -0.964799,-1.40249 -0.822191,0.0139 -1.223876,1.24276 -2.114731,1.05833 -0.595116,-0.0582 -1.319689,0.11593 -1.83582,-0.0841 -0.166897,-0.67147 -0.86365,-0.39207 -1.375354,-0.44505 -0.463735,0.21199 -0.310147,1.34495 -1.087963,1.11332 -1.24714,0.11317 -2.527709,0.0702 -3.753976,0.28085 -0.526412,0.24463 -1.239486,0.27143 -1.405726,0.93757 -0.551936,0.83134 -0.89519,1.84285 -1.588473,2.55246 -0.794898,0.65882 -1.882184,0.79817 -2.806491,1.22706 -0.0088,1.66804 0.159812,3.34111 0.339975,4.9941 0.591855,2.30747 1.254595,4.60615 1.802415,6.91909 -0.05232,4.50646 -0.104652,9.01291 -0.156982,13.51936 0.454753,0.46061 0.909506,0.92122 1.364258,1.38183 0.963322,-0.63215 2.177312,-0.38249 3.269836,-0.56024 0.917843,-0.0883 1.882806,-0.005 2.66868,-0.5748 0.833756,-0.44787 1.760873,-0.79155 2.535556,-1.30573 0.379896,-0.59244 0.759637,-1.18498 1.139295,-1.77758 0.772219,-0.002 1.544437,-0.005 2.316654,-0.008 0.914947,-1.1995 1.659874,-2.54802 2.848922,-3.50728 1.400043,0.15723 2.83636,0.16169 4.213921,0.41414 1.984576,0.81154 3.965813,1.63269 6.049917,2.15751 0.806387,0.13489 1.301377,1.02115 2.015419,1.2488 0.531074,-1.01236 0.815535,-2.2549 1.358643,-3.28046 0.346049,-0.4244 1.075843,-0.67362 1.174107,-1.21173 0.226335,-0.69188 -0.468352,-0.86046 -0.934879,-1.15868 -0.819483,-0.46939 -1.732595,-0.98728 -2.240121,-1.76494 0.03149,-0.68631 -0.176847,-1.44824 0.411861,-1.95882 0.199438,-0.76253 0.91476,-0.51352 1.438812,-0.66421 0.319154,-0.51046 0.721585,-0.85898 1.361324,-0.74648 0.451964,-0.16937 1.41991,0.21337 1.460042,-0.39728 0.109876,-0.53566 0.278553,-1.12233 -0.488831,-0.89678 -0.482357,-0.41343 -1.189331,-0.71091 -1.537375,-1.19344 0.08148,-0.63157 0.04786,-1.14803 -0.727038,-0.92322 -0.787333,0.0202 -0.09347,-0.857 0.388184,-0.92198 0.389281,-0.24603 -0.979355,-0.16105 -1.31263,-0.17381 -0.576934,0.20614 -1.020733,-0.31251 -1.523516,-0.51032 -0.05475,-0.63631 0.106752,-1.37769 -0.07778,-1.95095 -0.361099,-0.41737 -1.179296,-0.65298 -1.236975,-1.19139 0.172185,-1.21742 0.365612,-2.43152 0.570611,-3.64381 -0.571593,-0.13333 -1.207553,-0.18892 -1.309013,-0.89012 -0.222295,-0.64158 -0.866336,-1.24181 -0.48881,-1.94278 0.497324,-0.78724 -0.476498,-0.7185 -0.994008,-0.91527 -0.652639,-0.18132 -1.305163,-0.36307 -1.95775,-0.54459 -0.10655,-0.66591 -0.459443,-0.97311 -1.136832,-0.80873 -0.730343,0.17563 -0.920475,-0.86634 -1.48753,-1.05834 -0.791789,0.26078 -0.690142,-0.58308 -0.84111,-1.1146 -0.100523,-0.56555 -0.398577,-1.07419 -0.591119,-1.61184 z"
       id="5"
       inkscape:connector-curvature="0"
       inkscape:label="#5">
      <title
         id="title5210">Sparse Fields</title>
    </path>
    <path
       style="fill:#b27be0;stroke-width:0.26458332"
       d="m 42.881809,88.037188 c -0.489751,0.6911 -1.050491,1.346653 -1.20802,2.204117 -0.246817,0.762214 -0.493788,1.524381 -0.740698,2.286566 0.632175,0.997699 1.26435,1.9954 1.896525,2.993099 0.08729,1.25852 -0.454811,2.496063 -0.139393,3.743365 0.234025,1.547005 0.313253,3.126975 0.852986,4.609035 0.329773,0.93142 0.396266,1.99071 1.091443,2.74467 0.453567,0.35872 0.219044,0.88369 0.16622,1.36484 -0.103392,0.53619 -0.132942,1.07794 -0.119702,1.62302 0.622539,-2.7e-4 0.561824,0.5 0.529167,0.97921 -0.110287,0.51101 0.124038,0.91159 0.450226,1.28306 0.369705,0.29684 0.961941,0.26405 1.41891,0.43162 -0.611982,1.67146 -0.49177,3.49315 -0.704464,5.23994 -0.11407,0.70845 0.06405,1.51521 -0.469934,2.08236 -0.369381,0.44843 0.697936,0.19202 0.973191,0.32423 2.71341,0.27183 5.440631,0.43625 8.145092,0.77769 1.890848,0.28416 3.768654,0.69584 5.668129,0.89614 0.469121,-0.0538 1.080581,0.25468 1.376533,-0.24113 0.393719,-0.32107 0.742262,-0.64715 0.254651,-1.06971 -0.3496,-0.78061 -1.492984,-0.65216 -1.882119,-1.41972 -0.367026,-0.37375 -0.372053,-0.93861 -0.56341,-1.4051 0.277916,-0.34279 0.73966,-0.61728 0.913036,-0.99916 -0.01239,-0.67919 -0.175321,-1.40673 -0.09292,-2.05549 0.261833,-0.36337 0.776645,-0.67008 0.462791,-1.16438 -0.126531,-0.44887 -0.294015,-0.89957 -0.01674,-1.33034 0.07799,-0.49062 0.619136,-1.03804 0.174966,-1.46462 -0.359067,-0.50283 -0.588414,-1.14897 -1.24221,-1.32665 -0.670415,-0.3173 -1.318661,-0.66477 -1.787635,-1.25679 -0.964026,-0.96084 -1.927808,-1.92191 -2.89163,-2.88295 0.100454,-0.55422 -0.02858,-0.94019 -0.641404,-0.97251 -0.56572,-0.0634 -0.547243,-0.78551 -0.823335,-1.17548 -0.208882,-0.41755 -0.868223,-0.27783 -1.271733,-0.45452 -0.543956,0.0116 -0.726597,-0.56981 -1.067947,-0.89082 0.136156,-0.41434 0.776392,-0.81183 0.52848,-1.23901 -0.234978,-0.471633 -0.622242,-0.913013 -0.434155,-1.46948 0.06657,-0.69397 0.133143,-1.387941 0.199714,-2.081911 -0.384986,-0.464428 -1.050089,-0.781375 -1.018112,-1.465839 -0.05362,-0.608367 -0.449452,-1.269714 0.01985,-1.797585 0.432628,-0.660968 0.600182,-1.556112 1.357628,-1.930484 0.292921,-0.258075 0.976166,-0.587923 1.026605,-0.80141 -2.43993,-0.540612 -4.77171,-1.462008 -7.163258,-2.161725 -1.075772,-0.175382 -2.151544,-0.350766 -3.227317,-0.526148 z"
       id="8"
       inkscape:connector-curvature="0"
       inkscape:label="#8">
      <title
         id="title5168">Narrow Ridge</title>
    </path>
    <path
       style="fill:#e0a77b;stroke-width:0.26458332"
       d="m 78.792782,113.37084 c -0.852351,0.12773 -1.632162,-0.39405 -2.450341,-0.5723 -0.641573,-0.36086 0.05433,-1.00739 0.133009,-1.52209 0.154833,-0.5963 -0.355824,-1.20102 -0.470508,-1.80073 -0.267114,-0.55038 -0.268225,-1.26815 -0.772962,-1.66899 -0.371981,0.54898 -0.887492,0.74899 -1.537645,0.62166 -1.006356,0.14884 -1.719364,-0.74431 -2.573793,-1.13512 -1.163301,-0.73712 -2.264057,-1.65279 -3.452863,-2.29924 -1.475121,-0.14188 -2.813642,0.62139 -4.215992,0.96169 -0.660808,0.0701 -0.73146,1.15232 -1.498107,0.89039 -0.887126,-0.0406 -1.765532,-0.0337 -2.56434,0.40657 -0.72243,0.0232 0.169057,1.36023 -0.615829,1.18093 -0.593359,-0.32946 -1.017366,-1.0496 -1.547404,-1.52513 -0.585754,-0.69514 -1.362546,-1.31478 -1.828958,-2.05707 0.32917,-0.88248 -0.774962,-0.61392 -1.064671,-1.11677 -0.261062,-0.58327 -0.415234,-1.29879 -1.203303,-1.23 -0.709406,-0.008 -1.167766,-0.4273 -1.536647,-0.99389 0.282587,-0.52409 0.917424,-1.0364 0.34113,-1.589205 -0.573662,-0.727781 -0.08598,-1.66828 -0.113812,-2.505458 0.294229,-0.704207 -0.328829,-1.07897 -0.760045,-1.522635 -0.280404,-0.585797 -0.268616,-1.325732 -0.440863,-1.968584 0.575726,-0.938102 0.937995,-2.054699 1.927332,-2.646937 0.857012,-0.66244 2.03867,-0.720142 3.007696,-1.191957 0.536188,-0.288885 1.261771,-0.404592 1.688362,-0.793688 0.344348,-1.521669 1.496521,-2.656023 2.26616,-3.973786 0.224202,-0.718612 0.911863,-0.746474 1.545268,-0.855202 1.055181,-0.170439 2.128257,-0.509348 3.172355,-0.575447 1.199869,0.476172 2.330701,1.197633 3.657536,1.222692 0.563423,-0.04503 1.313418,0.462251 1.732142,-0.01114 0.929789,-0.939592 1.859578,-1.879186 2.789366,-2.818779 0.587659,0.175863 1.135695,0.567439 1.770309,0.48768 0.445808,-0.95854 0.655627,-2.073406 1.5571,-2.730102 0.585764,-0.596871 1.171528,-1.193743 1.757292,-1.790615 0.736778,0.166542 1.502011,0.279524 1.984516,0.924635 0.448753,0.369024 1.067852,-0.367455 1.587359,-0.457607 0.11684,-0.37221 -0.256472,-1.837094 0.234111,-1.376138 0.802328,0.934482 2.114272,0.978195 3.196473,1.42348 0.470168,0.280747 1.598431,0.132778 1.256896,0.942308 -0.0861,0.823717 -0.172191,1.647433 -0.258286,2.47115 0.729385,0.795471 1.676051,1.429966 2.267841,2.327376 0.359796,0.550968 0.546173,1.143577 0.446715,1.804821 0.218993,0.746172 -0.435923,1.110756 -0.903876,1.556976 -0.767414,0.895628 -2.279131,0.83431 -2.765862,2.013278 -0.585087,1.446377 -0.91313,3.021066 -1.898712,4.267521 0.894188,-0.252509 0.86465,0.350999 0.73452,1.047725 -0.21358,0.606253 0.783853,1.111798 -0.168618,1.392391 -0.481707,0.528108 -1.136473,0.50748 -1.79646,0.4703 -0.484762,0.504063 1.01283,0.708669 0.73378,1.189869 -0.468839,0.695434 -0.687378,1.46892 -0.707832,2.304178 -0.05213,0.79347 -0.277942,1.62143 -0.222123,2.39346 0.494693,0.56493 0.443364,0.99107 -0.28086,1.24616 0.29758,0.7307 1.038183,1.345 0.926041,2.18336 -0.563784,-0.35454 -1.103449,-0.32354 -1.618447,0.10155 -0.509026,0.3298 -0.103439,1.20746 -0.233636,1.76418 0.157482,0.73485 0.636882,1.39687 0.91899,2.10352 -0.54008,0.9952 -1.080158,1.99039 -1.620234,2.98559 -0.169757,0.0144 -0.339513,0.0288 -0.50927,0.0432 z"
       id="19"
       inkscape:connector-curvature="0"
       inkscape:label="#19">
      <title
         id="title5165">Mt. Telkin</title>
    </path>
    <path
       style="fill:#9ae07b;stroke-width:0.26458332"
       d="m 163.97157,97.132756 c -0.81259,0.38268 -1.65926,0.6189 -2.56286,0.609161 -2.83637,0.331713 -5.69247,0.05867 -8.53942,0.06742 -0.63524,-0.131138 -1.15766,0.09512 -1.61324,0.532792 -0.6726,0.235135 -0.63885,0.834916 -0.60632,1.434584 -0.0817,0.639137 -0.56978,1.176467 -0.8101,1.775927 -0.59256,0.0159 -1.26836,0.15425 -1.30938,-0.64115 -0.25406,-0.75236 -0.65428,-1.437318 -1.02277,-2.136971 -1.33946,-0.12437 -2.67891,-0.248738 -4.01836,-0.373102 -0.43859,-0.316939 -0.7221,-1.095746 -1.36385,-0.809504 -0.86048,0.192847 -1.87223,0.01476 -2.52282,0.722405 -0.66999,0.58782 -1.58913,0.904328 -2.17904,1.550207 -0.56695,0.858645 -0.84378,1.969385 -1.80139,2.488425 -0.57185,0.49442 -1.17474,0.92282 -1.95273,0.97815 -1.09955,0.36179 -2.2421,0.35589 -3.38608,0.33923 -0.40567,0.92284 -1.03059,1.78947 -1.29908,2.74764 -0.0105,1.35723 -0.16205,2.7488 -0.0867,4.08513 0.26942,0.57698 0.56441,1.12239 1.26911,1.16742 0.57537,0.17217 1.27756,0.24269 1.09978,1.02049 0.13648,0.69362 0.20827,1.3207 -0.67957,0.95271 -0.65774,-0.0159 -1.36741,-0.3296 -1.99109,-0.15019 -0.63832,0.41469 -1.56659,0.53576 -1.79951,1.36168 -0.52905,0.71026 0.10126,1.71124 -0.53641,2.39417 -0.51297,0.54782 0.38346,0.94861 0.63368,1.41663 0.54717,0.38633 0.49962,0.98969 0.47061,1.58628 0.44011,0.58472 1.2166,1.02439 1.5875,1.63895 0.17733,0.64573 -0.26402,1.01128 -0.74033,1.36099 -0.45799,0.39813 -1.05636,0.73269 -0.84717,1.43297 0.13342,0.51395 -0.33392,1.45258 0.37143,1.56222 0.692,0.22524 1.3695,0.52323 2.07027,0.70519 0.88107,-0.69938 1.88347,-1.27925 2.69034,-2.05183 0.36381,-0.39598 0.61606,-1.0874 1.04514,-1.31053 0.68848,0.0841 1.40086,0.48131 2.07435,0.36915 0.65951,-0.21692 1.29225,-0.72449 2.00245,-0.3983 0.98549,0.13113 1.96545,0.52341 2.95454,0.48385 1.22637,-0.16324 2.45877,-0.43533 3.68139,-0.53047 1.08288,0.29337 2.16585,0.58637 3.2489,0.87911 0.32112,0.49287 0.50219,1.22724 0.91127,1.56766 2.01342,-0.0888 4.02683,-0.17762 6.04025,-0.26645 0.51953,-0.74597 1.34332,-1.34697 1.38229,-2.3219 -0.09,-0.79001 0.68017,-0.70292 1.2329,-0.83765 0.85874,-0.16953 1.72042,-0.3239 2.58036,-0.48725 0.3359,-1.66881 0.56761,-3.3812 0.96794,-5.02311 0.40521,-0.64742 0.96273,-1.24681 1.27429,-1.92355 -0.0919,-0.77802 0.75561,-1.22448 1.11289,-1.84396 0.49843,-0.731 1.26098,-1.32673 1.58122,-2.14898 0.32349,-1.06665 0.61474,-2.13862 0.58107,-3.26382 0.046,-0.68105 0.17905,-1.38 -0.28008,-1.95724 -0.38907,-0.79152 -0.90433,-1.54906 -0.80745,-2.47221 -0.0583,-0.86236 -0.21624,-1.73538 0.1664,-2.55009 0.15756,-0.70389 0.50812,-1.425896 0.54485,-2.11844 -0.27306,-0.537991 -0.54621,-1.075933 -0.81944,-1.613842 z"
       id="11"
       inkscape:connector-curvature="0"
       inkscape:label="#11">
      <title
         id="title5180">Dusty Springs</title>
    </path>
    <path
       style="fill:#7b8ce0;stroke-width:0.26458332"
       d="m 52.160312,127.74588 c -1.163958,0.17895 -2.326601,0.49958 -3.491362,0.58956 -1.20825,-0.19257 -2.414232,-0.4131 -3.623966,-0.58801 -0.336237,0.37732 -0.591479,0.91763 -0.979586,1.19062 -0.650328,0 -1.300656,0 -1.950984,0 -0.322443,0.4185 -1.020743,0.6772 -0.872815,1.29462 0.128465,0.47005 0.837927,0.616 0.975941,1.13983 0.637414,1.19004 1.34483,2.35615 1.939192,3.56096 0.285247,1.6847 0.480863,3.39367 0.820841,5.06346 0.323632,0.72148 0.575494,1.46143 0.607523,2.25845 0.246851,1.50573 0.252915,3.06529 0.819495,4.49968 0.601277,1.62464 0.682957,3.37348 1.011335,5.06331 0.25208,1.0534 0.162001,2.13438 0.175673,3.20699 0.84467,-0.36383 1.778139,-0.56985 2.564783,-1.0368 0.746171,-0.46991 0.97336,-1.38765 1.454644,-2.086 0.293022,-0.38443 0.409274,-0.97559 0.815704,-1.22738 0.668593,-0.28378 1.344159,-0.53577 2.082918,-0.49215 1.043478,-0.0616 2.086955,-0.12317 3.130433,-0.18476 0.261793,-0.32636 0.234538,-1.09818 0.717189,-1.08417 0.456166,0.0452 1.072336,-0.19699 1.222523,0.39694 0.321101,0.29164 0.935133,0.0574 1.377,0.13223 0.50444,-0.0143 1.062084,0.12522 1.411532,-0.33681 0.462708,-0.3162 0.841984,-0.87345 1.466727,-0.72152 0.27069,0.45827 0.428033,1.04279 0.763051,1.42903 0.451093,0.0753 0.947064,0.5844 1.348448,0.17913 0.546992,-0.19561 0.339672,-0.89375 0.498435,-1.348 0.177697,-0.68591 0.02995,-1.51899 0.624073,-2.0166 0.500843,-0.32712 0.05634,-0.83829 -0.02141,-1.27851 -0.122266,-0.46114 0.36295,-0.87306 0.498062,-1.31335 0.298858,-0.59097 0.597877,-1.18185 0.896808,-1.77278 -0.266734,-0.6691 -0.719095,-1.29608 -0.874882,-1.99018 0.0038,-0.44994 -0.133162,-0.97804 0.427416,-1.11743 0.348941,-0.27434 -0.04338,-0.89898 -0.0011,-1.31825 -0.06082,-0.48173 -0.278609,-1.0235 0.292359,-1.26355 0.406062,-0.27101 0.713669,-0.59123 0.614879,-1.11411 0.0052,-0.73566 0.255526,-1.5122 -0.173101,-2.17552 -0.228809,-0.42916 -0.245206,-1.06261 -0.822249,-1.15712 -0.946673,-0.40537 -1.875827,-0.92806 -2.833261,-1.26138 -0.78947,0.0742 -1.606229,0.28577 -2.379043,0.27722 -0.809821,-0.44462 -1.591199,-0.99173 -2.418792,-1.37232 -1.424791,-0.0416 -2.876052,0.0166 -4.284483,-0.0861 -1.23626,-0.72875 -2.517761,-1.35971 -3.829954,-1.93928 z"
       id="6"
       inkscape:connector-curvature="0"
       inkscape:label="#6">
      <title
         id="title5189">Concave Mountains</title>
    </path>
    <path
       style="fill:#e07b85;stroke-width:0.26458332"
       d="m 74.116319,151.80685 c -0.918837,-0.0993 -1.78021,-0.51839 -2.675538,-0.74853 -0.245845,-0.46102 -0.426486,-1.03325 -1.066914,-0.82128 -0.606568,0.17788 -0.909524,-0.3285 -1.261955,-0.72337 -0.145671,-0.6381 -1.030323,-0.0181 -1.063846,-0.59015 -0.250315,-1.27808 -0.701139,-2.50141 -1.08032,-3.74431 0.491649,-0.97173 0.983299,-1.94346 1.474952,-2.91519 -0.262603,-0.70538 -0.796439,-1.34939 -0.874816,-2.09645 -0.261562,-0.67582 0.393996,-0.87452 0.566426,-1.2847 -0.08739,-0.65153 -0.174777,-1.30306 -0.262166,-1.95459 0.351353,-0.42131 1.121867,-0.63348 1.017506,-1.28216 0.0034,-0.82478 0.291938,-1.69716 -0.194352,-2.44022 -0.21328,-0.4464 -0.264482,-1.05271 -0.860175,-1.12185 -0.682485,-0.2936 -1.364971,-0.5872 -2.047457,-0.8808 -0.20761,-1.1439 -0.408301,-2.28839 -0.336426,-3.45579 0.828134,-0.10645 1.466136,0.56869 2.199855,0.85036 0.810114,0.75355 1.620232,1.5071 2.430353,2.26065 0.3536,-0.26664 1.228689,-0.17235 1.190625,-0.71006 -0.151704,-0.81258 0.530293,-1.39887 0.849196,-2.08371 0.261077,-0.42316 0.459706,-1.16211 1.07157,-0.7027 0.448614,0.0471 1.074675,0.60324 1.404488,0.30951 0.471167,-0.47182 0.375276,-1.11027 0.378808,-1.71951 -0.496402,-0.16895 -1.09761,-0.27787 -0.7511,-0.92953 0.115071,-0.87065 0.328058,-1.72099 0.548786,-2.56971 -0.350604,-0.41665 -0.630926,-0.98093 -1.267382,-0.79726 -0.524337,-0.006 -1.048675,-0.0112 -1.573012,-0.0169 0.637151,-0.42565 1.40745,-0.74749 1.961449,-1.23796 0.318522,-0.88373 0.372254,-1.9105 1.128338,-2.55785 0.365015,-0.28621 0.539438,-0.98188 1.055648,-0.94327 0.98603,-0.11839 1.808142,0.56276 2.709184,0.85891 0.83785,0.41702 1.794544,0.64845 2.555169,1.18607 0.592052,0.53488 1.184103,1.06976 1.776154,1.60464 -0.250719,0.38829 -1.108608,0.69733 -0.589384,1.1861 0.749427,1.37229 1.6476,2.67549 2.301702,4.09205 0.678911,1.9454 1.364176,3.88823 2.276743,5.73918 0.684089,1.17515 0.69802,2.55646 0.97467,3.85695 0.255549,1.4465 0.06178,2.93183 0.122201,4.3952 0.05304,0.67253 -0.604592,1.13121 -0.879755,1.70498 -0.332687,0.43024 -0.614071,0.87725 -0.527303,1.44461 -0.02397,0.5413 -0.232399,1.21213 0.535903,1.1971 0.874921,0.29726 1.804895,0.5015 2.645273,0.85712 0.533633,0.57629 1.236329,1.081 1.665467,1.70154 0.224515,0.68296 -0.513833,0.7141 -0.97277,0.93439 -0.342701,0.26601 -1.193689,0.18794 -1.143896,0.71965 0.09372,0.55333 -0.742958,0.48706 -1.083459,0.75121 -0.486452,0.28709 -0.995733,0.37042 -1.535337,0.18305 -1.276393,-0.22257 -2.552785,-0.44516 -3.829177,-0.66775 -0.291273,0.70668 -0.526809,0.66475 -0.710504,-0.0736 -0.381538,-0.81461 -0.58603,-1.7491 -1.348855,-2.30555 -0.330196,-0.56123 -0.854585,0.18899 -1.282251,0.28607 -0.05718,0.49489 0.115012,1.21914 -0.08731,1.56888 -0.641936,0.16817 -0.676967,-0.67682 -0.98964,-1.05833 -0.852132,-0.31104 -0.204502,0.7194 -0.755098,0.83097 -0.486091,0.28016 -1.032318,0.23575 -1.571873,0.22736 -0.177243,0.62154 -0.331927,1.25663 -0.893778,1.64727 -0.300106,0.40987 -0.895872,0.69923 -0.993966,1.19143 -0.08682,0.3146 0.243658,1.05623 -0.330649,0.84775 z"
       id="3"
       inkscape:connector-curvature="0"
       inkscape:label="#3">
      <title
         id="title5192">Pollen Fields</title>
    </path>
    <path
       style="fill:#fe835d;stroke-width:0.26458332"
       d="m 126.56972,115.04898 c -0.9852,-0.20688 -1.59144,0.95327 -2.5632,0.78033 -0.54597,0.0501 -1.33923,-0.22868 -1.32251,0.56737 -0.30135,0.88997 -0.77473,1.73303 -1.21343,2.55675 -1.35233,1.30756 -2.48846,2.8636 -4.09425,3.87967 -0.48517,0.3449 -1.26036,0.68628 -0.34392,1.04815 0.62603,0.55387 1.53233,0.89134 1.71149,1.79033 0.19881,0.53106 0.35385,1.10445 1.00058,1.20005 0.47157,0.3129 1.27063,0.36319 1.51814,0.85594 0.18813,0.50853 0.0145,1.28285 0.67337,1.44552 0.56422,0.36008 1.33582,0.52912 1.4748,1.28123 0.114,0.73963 0.64479,0.83135 1.29806,0.73271 1.22474,-0.14677 2.31339,0.53521 3.46325,0.84386 0.55423,0.27771 1.11976,0.32671 1.69929,0.0929 0.77724,-0.10308 1.57492,-0.6057 2.32488,-0.17123 0.621,0.15586 1.27071,0.54439 1.87413,0.55865 0.71317,-0.54815 1.51341,-0.90857 2.3914,-1.10087 0.8663,-0.26122 1.73243,-0.52303 2.59863,-0.78455 0.49646,0.31661 0.82616,1.10773 1.50734,0.89994 0.82935,-0.10184 1.76169,0.10859 2.41144,-0.53775 0.62709,-0.59062 1.53599,-0.23478 2.31054,-0.33015 0.67747,-0.16949 1.05839,0.15611 1.25928,0.78228 0.31535,0.58698 1.11949,0.68222 1.64129,1.06169 0.74023,0.48053 1.6834,0.16 2.51715,0.25851 0.55324,-0.0571 1.23261,0.12009 1.71192,-0.0743 0.579,-0.81525 1.05683,-1.75578 1.69767,-2.49415 0.95492,-0.33171 1.89549,-0.79261 2.85948,-1.04367 1.46179,0.21073 2.92358,0.42146 4.38537,0.63219 -0.0255,-0.80785 -0.67776,-1.46086 -0.97096,-2.20257 -0.34496,-0.8028 -1.0523,-1.51635 -0.88007,-2.44653 0.0425,-1.02706 -0.10708,-2.07178 0.13858,-3.08015 -1.22659,0.2291 -2.45375,0.4552 -3.67626,0.70539 -0.1716,0.75741 -0.22277,1.57213 -0.85553,2.1098 -0.35444,0.4019 -0.59172,1.03394 -1.24102,0.85661 -1.85345,0.0818 -3.7069,0.16353 -5.56035,0.24528 -0.3218,-0.50767 -0.50224,-1.1908 -0.906,-1.59721 -1.14849,-0.25859 -2.28561,-0.72448 -3.44153,-0.85008 -1.29181,0.1547 -2.58746,0.4914 -3.87689,0.53433 -1.07791,-0.17763 -2.16965,-0.50368 -3.2391,-0.58997 -0.68711,0.20903 -1.34631,0.78024 -2.07699,0.41635 -0.51528,0.008 -1.27258,-0.62487 -1.55375,0.003 -0.47387,0.73681 -0.99466,1.42738 -1.77273,1.86443 -0.54403,0.39968 -1.08844,0.79884 -1.63266,1.19828 -0.81758,-0.27887 -1.63527,-0.5574 -2.45308,-0.83561 0.048,-0.71531 -0.0961,-1.51758 0.0725,-2.17824 0.48118,-0.48613 1.15449,-0.88525 1.51499,-1.42604 0.16676,-0.63125 -0.24088,-1.01483 -0.70155,-1.37556 -0.36247,-0.42811 -1.07725,-0.70431 -0.88595,-1.3712 0.14765,-0.79901 -0.72359,-1.22642 -1.0952,-1.83606 -0.55582,-0.45249 0.4659,-0.97249 0.30145,-1.5431 3e-5,-0.44425 -4e-5,-0.88849 -1e-4,-1.33274 z"
       id="12"
       inkscape:connector-curvature="0"
       inkscape:label="#12">
      <title
         id="title5183">Arid Canyon</title>
    </path>
    <path
       style="fill:#7da3b6;stroke-width:0.26458332"
       d="m 138.11062,53.796385 c -1.09955,0.531471 -2.19906,1.06305 -3.29851,1.594735 -0.73095,-0.22422 -1.58919,-0.201325 -2.23948,-0.581789 -0.36747,-0.576887 -0.98648,-0.507478 -1.58786,-0.483779 -0.0708,0.486584 0.044,1.171377 -0.54464,1.50239 -0.5989,0.203479 -1.3635,0.02401 -2.02401,0.08511 -0.80633,-0.25796 -1.54381,-1.003969 -2.42765,-0.715464 -0.80521,-0.08146 -0.35975,0.979197 -0.52649,1.480789 0.0131,0.69883 -0.18754,1.480039 -0.0423,2.127775 0.85362,0.787066 1.63251,1.715148 2.53141,2.416796 0.56363,-0.13487 1.32464,0.684669 0.37121,0.422811 -0.6163,-0.368594 -1.10978,0.01662 -1.60494,0.390822 -0.76525,0.212189 -0.51055,0.971341 -0.54399,1.575974 0.0517,0.687398 -0.1058,1.469478 0.076,2.097968 0.71872,0.535156 1.25717,1.419449 2.23327,1.456127 1.22431,0.285724 2.44392,0.592065 3.6743,0.851089 0.34962,0.900903 0.71993,1.796269 0.78393,2.771924 1.07916,0.513673 2.14287,1.074481 3.35217,1.191282 1.1043,0.180886 2.19129,0.531074 3.30737,0.596733 0.47385,-0.508043 1.12357,-0.925112 1.49675,-1.485225 0.16396,-0.85887 0.15479,-1.808331 0.42026,-2.613788 0.41285,-0.463483 0.86707,-0.82143 1.52257,-0.660914 1.35369,0.07731 2.71882,0.256107 4.06544,0.27082 0.92815,-0.340591 1.95261,-0.499794 2.8218,-0.951445 1.29051,-0.878734 1.97962,-2.335502 2.95689,-3.515281 0.32004,-0.558071 0.9798,-0.749789 1.4725,-1.121599 0.79936,0.102159 1.6572,0.05449 2.42107,0.247507 0.66968,0.564024 1.51566,0.981588 1.78402,1.878452 0.33252,0.707046 0.90817,1.360451 0.682,2.19076 -0.0825,1.822576 -0.16521,3.64514 -0.2481,5.467697 1.77068,-1.150855 3.48627,-2.391869 5.35021,-3.385133 2.26286,-1.464188 4.78405,-2.458222 7.17357,-3.691954 0.28885,-1.631783 0.94426,-3.222603 0.82372,-4.89996 -0.61022,-0.778184 -1.06679,-1.722716 -2.02923,-2.118912 -0.81047,-0.5106 -1.59219,-1.092165 -2.58107,-1.162483 -1.5548,-0.28737 -3.07839,-0.862251 -4.68018,-0.716293 -2.19448,0.02146 -4.40267,-0.04264 -6.58868,0.03164 -2.04035,0.646881 -4.06741,1.387773 -6.11626,1.975483 -2.57754,-0.1227 -5.1688,-0.122898 -7.73781,-0.321698 -0.57676,-0.174434 -1.52868,-0.01452 -1.53879,-0.852076 -0.2043,-0.882216 -0.26072,-1.827311 -0.91826,-2.51697 -0.28541,-0.612617 -0.6893,-1.004344 -1.39829,-0.827244 -0.21466,-8.94e-4 -0.42931,-0.0018 -0.64396,-0.0027 z"
       id="21"
       inkscape:connector-curvature="0"
       inkscape:label="#21">
      <title
         id="title5156">Remote Woodlands</title>
    </path>
    <path
       style="fill:#99c561;stroke-width:0.26458332"
       d="m 83.980593,119.80941 c -0.563914,0.50353 -1.127702,1.00721 -1.69137,1.51102 1.037145,1.93706 2.415058,3.71584 3.02401,5.85178 0.594379,1.93443 1.544889,3.73182 2.307386,5.59398 0.304975,1.77684 0.724451,3.54382 0.584521,5.3591 -0.101,0.91842 0.300781,1.98809 -0.429247,2.71728 -0.43138,0.72792 -1.14881,1.36231 -0.985137,2.28479 -0.336118,0.90625 0.408517,1.05161 1.12847,1.21435 0.959908,0.34738 2.096746,0.40026 2.712849,1.31991 1.125363,1.26832 2.500535,2.25048 3.848134,3.26436 0.821836,-0.0816 0.81533,-0.62753 1.252646,-1.12935 0.590778,-0.47724 0.953781,-1.43809 1.843337,-1.28094 0.516964,-0.19147 1.587804,0.23915 1.666914,-0.44329 0.362633,-0.83222 -0.47413,-1.45916 -0.771803,-2.1784 -0.493021,-0.92257 -1.135319,-1.80488 -1.534914,-2.7526 -0.09093,-0.96266 0.0743,-1.88185 0.471768,-2.76179 0.259596,-0.65807 1.158105,-0.78532 1.695731,-1.2124 0.655685,-0.38828 1.288552,-0.86242 2.093542,-0.68905 0.84223,0.0275 1.75164,-0.18601 2.42161,0.45978 0.91098,0.55031 1.82188,1.10077 2.7328,1.6512 0.36384,1.56397 0.58831,3.19752 1.03624,4.71926 1.95672,2.32913 4.17414,4.43108 6.20802,6.6814 0.38444,0.59637 0.70375,1.20078 0.3353,1.89012 -0.30659,0.70589 0.68727,1.06762 1.01633,1.60561 0.59777,0.48631 0.45211,1.33793 1.15962,0.40848 1.14979,-1.09842 2.29958,-2.19684 3.44936,-3.29527 -0.1914,-0.74559 0.82056,-0.7782 1.25166,-1.15475 1.13803,-0.67772 2.52302,-0.70736 3.77543,-1.0849 -0.26446,-0.88092 1.44958,0.13674 1.13874,-0.73304 -0.17365,-0.9431 0.0232,-2.02538 -0.73208,-2.75 -0.69606,-1.10008 -1.53183,-2.09798 -2.37784,-3.07454 -0.64363,-1.33365 -1.28726,-2.66729 -1.9309,-4.00094 -0.73645,0.11186 -0.83242,-0.92483 -1.26171,-1.36408 -0.60755,-0.72558 0.0904,-1.80405 -0.55972,-2.53796 -0.51763,-0.94134 -0.9241,-1.97776 -1.50874,-2.8619 -0.82757,-0.69112 -1.88243,-1.16955 -2.55731,-2.00375 -0.55344,-1.052 -1.54233,-1.94282 -1.53664,-3.20179 -0.10258,-0.47623 -10e-4,-1.56328 -0.79149,-1.16005 -1.25049,0.3177 -2.50236,0.62358 -3.8034,0.52354 -2.71703,-0.0747 -5.42094,-0.47795 -8.13272,-0.68417 -1.613284,-1.12234 -3.177689,-2.35207 -4.820563,-3.40921 -2.391212,-0.53784 -4.861457,-0.6249 -7.286226,-0.97119 -1.478272,-0.17564 -2.949572,-0.3946 -4.442608,-0.3206 z"
       id="2"
       inkscape:connector-curvature="0"
       inkscape:label="#2">
      <title
         id="title5195">Wedgewoods</title>
    </path>
    <path
       style="fill:#82b67d;stroke-width:0.26458332"
       d="m 83.474189,102.06714 c -0.695119,0.3495 -1.390239,0.699 -2.085358,1.0485 -0.439768,-0.27407 -0.08406,-0.82386 -0.113837,-1.24004 0.140179,-0.89466 0.148394,-1.83046 0.372756,-2.698869 0.144801,-0.378707 0.541133,-0.815376 0.531645,-1.158531 -0.294289,-0.315776 -0.968622,-0.438642 -0.85318,-0.962399 0.553644,-0.05406 1.197839,0.178996 1.620364,-0.290811 0.299063,-0.277628 1.051,-0.461988 0.543133,-0.905798 -0.306751,-0.448186 -0.01428,-1.042226 -0.05043,-1.556278 0.10703,-0.433188 -1.154045,0.144077 -0.644895,-0.400655 0.515871,-0.669824 0.829034,-1.440838 1.087077,-2.239365 0.365258,-0.850064 0.498924,-1.829851 1.180792,-2.502569 0.773434,-0.496214 1.770268,-0.680036 2.379425,-1.42565 0.303879,-0.359222 0.915402,-0.584113 0.763699,-1.142263 -0.03073,-0.590082 0.132808,-1.226813 -0.263047,-1.729223 -0.348386,-0.905744 -1.225649,-1.419661 -1.857486,-2.115407 -0.321662,-0.306806 -0.758853,-0.571368 -0.540826,-1.07551 0.08254,-0.799754 0.165084,-1.599509 0.247626,-2.399264 0.354816,-0.445252 1.022006,-0.275435 1.522091,-0.43465 0.741984,-0.08676 1.50299,-0.292408 2.233061,-0.304705 0.719281,0.341641 1.417035,0.77285 2.149497,1.059649 0.678191,0.102961 1.155993,-0.505955 1.73063,-0.770867 0.720551,-0.464054 1.446515,-0.916647 2.287073,-1.126592 1.448146,-0.501928 2.896292,-1.003854 4.344441,-1.505781 1.09025,0.310436 2.22788,0.495963 3.28888,0.883503 0.6719,0.347417 1.34381,0.694838 2.01571,1.04226 -0.21179,0.493085 -0.69816,0.941288 -0.45545,1.508652 0.15942,1.008817 0.4235,2.010582 0.29438,3.038842 -0.004,1.166474 -0.0897,2.324979 -0.32669,3.468807 -0.0991,0.610428 -0.19816,1.220857 -0.29724,1.831285 -1.6218,0.283401 -3.23333,0.674859 -4.861586,0.890307 -0.391137,0.05742 -1.121362,-0.224257 -0.92773,0.417927 0.0082,0.5521 -0.521329,0.944791 -0.749797,1.426731 -0.649076,0.964381 -1.243501,1.982101 -1.926603,2.913272 -1.157954,0.783975 -2.271956,1.642093 -3.562791,2.201909 -0.519313,0.319352 -1.076395,0.516589 -1.689405,0.532994 -0.67899,0.113029 -1.395527,0.134607 -2.050976,0.304968 -0.536358,0.439345 -1.157465,0.814096 -1.642468,1.292583 -0.272057,0.67993 -0.544112,1.359861 -0.816165,2.039793 -0.372545,0.172335 -0.969813,0.190205 -0.790961,0.741555 0.114035,0.50597 -0.614771,0.49233 -0.905768,0.7486 -0.393198,0.1977 -0.786396,0.39539 -1.179594,0.59309 z"
       id="17"
       inkscape:connector-curvature="0"
       inkscape:label="#17">
      <title
         id="title5162">Northern Plateaus</title>
    </path>
    <path
       style="fill:#3f64fe;stroke-width:0.26458332"
       d="m 139.72241,143.86324 c -1.88455,0.62747 -3.71687,1.45321 -5.71077,1.66398 -0.72955,-0.41035 -1.45922,-0.82048 -2.18901,-1.23042 -1.84812,1.17151 -3.80866,2.15443 -5.91485,2.76541 -0.59439,0.61188 0.15713,1.19979 0.91669,0.81147 0.64217,-0.003 1.37743,-0.26678 1.96264,-0.10875 0.83356,0.75207 1.57608,1.72424 2.46567,2.3403 0.48211,0.2029 0.0765,1.29353 0.21018,1.84485 0.11982,1.84977 -0.2908,3.66071 -0.53485,5.48391 0.70604,0.99625 1.31364,2.09677 2.07918,3.03001 0.87368,0.48191 1.6761,1.18533 2.73527,1.0919 1.3548,0.0863 2.6981,0.23073 3.96833,0.7403 0.90527,0.29344 1.87851,0.59381 2.67552,1.0699 0.40376,0.76457 1.19321,1.41729 0.9828,2.36031 -0.0923,0.73451 0.0486,1.40871 0.50584,2.00104 0.56165,1.01177 1.13533,2.01713 1.63874,3.05973 -0.33282,0.95575 -1.10727,1.84167 -0.77674,2.90211 0.0894,1.05454 0.12892,2.12244 0.71846,3.04175 0.37518,0.82378 0.74993,1.64776 1.12488,2.47164 0.95514,0.22477 0.25876,0.56898 -0.26705,0.74967 -1.07433,0.89567 -2.1832,1.73597 -3.49747,2.24794 -0.80917,0.22534 -1.25288,0.67913 -1.03416,1.54699 0.0749,0.63352 -0.27297,1.46635 0.47129,1.78421 0.75262,0.72913 1.92789,0.58588 2.87755,0.90829 1.51353,0.36071 3.09382,0.0965 4.63724,0.17744 0.78097,-0.64186 1.99137,-0.91717 2.25926,-1.99731 0.36719,-0.44008 0.31903,-1.64879 1.05837,-1.39887 1.20955,0.19068 2.42247,0.35957 3.63337,0.54157 1.17013,-1.60357 2.47881,-3.129 3.5349,-4.80288 0.61758,-1.40621 1.36488,-2.7838 1.90094,-4.20807 -0.18376,-0.74424 0.26329,-1.24649 0.77509,-1.7239 0.50779,-0.64402 1.23059,-1.20677 1.60503,-1.9012 -0.11557,-1.20085 -0.71072,-2.33808 -0.52464,-3.57735 -0.0402,-1.32182 -0.0288,-2.63819 0.3582,-3.91543 0.16087,-1.04918 0.69046,-2.10392 0.21948,-3.14353 0.0222,-0.87015 -1.05732,-0.5786 -1.63723,-0.81437 -1.01607,-0.0438 -1.72825,-1.08283 -2.78815,-0.83991 -0.61986,0.15485 -1.73883,-0.0734 -0.89138,-0.63726 1.01628,-0.13536 1.44239,-1.25101 2.1714,-1.86356 0.70693,-0.86656 0.83926,-2.07969 1.30034,-3.09458 0.2685,-0.9932 0.73252,-1.87955 1.43217,-2.63715 0.58887,-0.51531 0.75585,-1.1581 0.41677,-1.87569 -0.26706,-1.15072 -0.53413,-2.30145 -0.80119,-3.45217 -0.83093,0.37709 -1.55284,1.16862 -2.52905,0.9927 -0.66457,0.58688 0.24384,1.30303 0.17896,1.96041 -0.21471,0.7236 -0.45954,1.41843 -1.29554,1.55296 -0.46341,0.38266 -1.71469,0.35647 -1.55874,1.06036 0.0649,0.64022 0.5518,1.39683 -0.17308,1.81916 -0.44556,0.83198 -1.46687,0.36699 -2.22881,0.48628 0.42565,0.58764 0.62215,1.20271 0.28345,1.88092 -0.24347,0.46488 -1.35221,0.24839 -1.82675,0.10139 -0.60558,-0.48623 -1.49439,-0.77972 -1.48268,-1.6875 0.13521,-0.8496 -1.14228,-0.69118 -1.18823,-1.33894 0.1529,-0.76286 -0.7989,-1.04149 -1.18494,-1.56812 -0.59579,-0.46156 -1.04094,-1.3089 -1.90169,-1.09192 -0.58881,-0.65102 -1.06343,-1.47922 -1.71836,-2.02762 -0.94045,-0.31706 -2.02737,-0.36764 -2.87556,-0.85242 -1.1037,-1.25698 -2.78125,-1.69355 -4.19226,-2.51127 -0.12494,-0.0629 -0.24989,-0.12581 -0.37483,-0.18871 z"
       id="14"
       inkscape:connector-curvature="0"
       inkscape:label="#14">
      <title
         id="title5201">Dry Bay</title>
    </path>
    <path
       style="fill:#6b5456;stroke-width:0.26458332"
       d="m 115.88297,117.42871 c -0.58517,0.10968 -1.04329,-0.0668 -1.43835,-0.48348 -1.82315,-0.72451 -3.6463,-1.44903 -5.46945,-2.17354 -0.75797,-1.307 -1.51595,-2.614 -2.27392,-3.921 -1.3669,-0.33096 -2.79023,-0.41321 -4.15742,-0.68539 -1.21918,-0.72735 -2.52119,-1.34572 -3.689359,-2.14018 -2.09789,-2.20161 -4.394682,-4.19385 -6.649585,-6.23018 -0.312801,-0.95457 -0.50686,-1.984684 -0.893148,-2.892507 -0.640474,-0.504199 -1.216044,-1.180692 -1.89526,-1.582049 -0.32932,-0.103556 -1.647234,0.257133 -1.037278,-0.287509 0.247436,-0.576381 0.863394,-0.474213 1.380595,-0.553882 0.975351,-0.136042 2.004736,-0.09318 2.840561,-0.691174 1.306303,-0.592444 2.491496,-1.438462 3.622602,-2.295414 0.855251,-1.315889 1.710503,-2.631777 2.565756,-3.947664 -0.231446,-0.77716 0.34905,-0.742376 0.946116,-0.691023 1.63048,-0.223145 3.24542,-0.609961 4.86998,-0.895442 0.16755,-0.869399 0.1369,-1.809521 0.42672,-2.635295 0.22903,-0.842803 0.69332,-0.248302 1.12034,0.118451 0.50076,0.933195 0.96892,1.937674 1.34945,2.933782 0.16765,0.923152 0.45954,1.83108 0.4333,2.777993 0.98406,1.683774 2.3346,3.097078 3.55402,4.607149 -0.005,0.542814 -0.14496,1.16128 0.5283,1.326144 0.0492,0.747866 -0.28474,1.627845 -0.26261,2.415628 0.22629,0.795912 0.62768,1.595252 0.74805,2.389102 -0.41985,0.57096 -0.1408,1.01212 0.34898,1.41417 1.06737,1.18402 2.13475,2.36803 3.20213,3.55205 0.75552,0.0207 1.59151,-0.32667 2.23485,0.20724 0.90412,0.35196 1.25,1.35307 1.87422,2.03052 0.44093,0.64861 1.03313,1.24663 1.38024,1.92661 0,1.12891 0,2.25783 0,3.38674 -0.79665,0.24731 -1.65937,0.37822 -2.41732,0.69372 -0.79792,0.77548 -1.59583,1.55096 -2.39374,2.32644 -0.28292,0 -0.56585,-1e-5 -0.84877,-1e-5 z"
       id="20"
       inkscape:connector-curvature="0"
       inkscape:label="#20">
      <title
         id="title5177">Tall Ridge</title>
    </path>
    <path
       style="fill:#603c6d;stroke-width:0.26458332"
       d="m 109.23914,125.28327 c -0.74302,0.27892 -1.20753,-0.11155 -1.87975,-0.20326 -2.28267,-0.19011 -4.56534,-0.38022 -6.84801,-0.57033 -1.634237,-1.09948 -3.136397,-2.41563 -4.861297,-3.36638 -0.981777,-0.47703 -2.152095,-0.32783 -3.21412,-0.53833 -2.574409,-0.29404 -5.14882,-0.58808 -7.72323,-0.88212 -0.617096,0.22314 -1.23419,0.44628 -1.851282,0.66943 -0.841405,-0.74469 -1.51564,-1.74274 -2.659777,-2.02861 -1.04267,-0.50049 -2.21244,-0.80453 -3.171499,-1.43425 -0.386115,-0.46202 0.594251,-1.07753 0.770591,-1.60273 0.202555,-0.6771 1.086039,-0.73838 1.406271,-1.19921 -0.07715,-0.94937 0.715979,-1.69369 1.05009,-2.54616 0.187826,-0.57751 0.951936,-1.14317 0.428541,-1.73532 -0.385928,-0.77964 -0.847553,-1.54217 -0.682432,-2.44648 -0.25219,-0.79 0.376041,-1.05262 0.984572,-1.32703 0.551254,0.27162 1.200043,0.39467 0.761671,-0.43005 -0.114524,-0.52464 -1.1228,-1.27475 -0.547034,-1.62525 0.993843,-0.16045 -0.387848,-0.91181 0.487383,-1.05292 1.289886,-0.64854 2.579772,-1.29709 3.869658,-1.94563 -0.305847,-0.83534 0.506439,-0.72706 0.793596,-1.246418 0.396929,-0.773178 0.793847,-1.546362 1.190763,-2.319546 0.660048,0.0041 1.397971,-0.227814 2.01396,-0.09015 0.5974,0.622258 1.454817,1.079103 1.884149,1.808279 0.298421,0.887775 0.461125,1.860645 0.842815,2.696205 2.278836,2.04944 4.584596,4.07054 6.701645,6.29028 1.253046,0.6758 2.470796,1.4566 3.745356,2.06838 1.32743,0.18242 2.66059,0.33032 3.9694,0.62502 0.75797,1.307 1.51595,2.614 2.27392,3.921 1.87218,0.77071 3.79726,1.45582 5.63654,2.27975 0.4965,0.67669 1.40762,0.26667 2.12011,0.37727 0.85252,-0.7815 1.635,-1.68224 2.5307,-2.39023 0.70007,-0.14438 1.44918,-0.56059 2.12029,-0.54455 0.38332,0.4377 1.26613,0.66046 1.32708,1.23688 -0.054,0.76443 -0.11428,1.52678 -0.63599,2.13544 -0.69021,1.50178 -2.03287,2.50228 -3.12786,3.69305 -0.9573,1.10496 -2.34416,1.68033 -3.51759,2.51883 -2.06384,0.38843 -4.10178,0.9654 -6.18923,1.20514 z"
       id="15"
       inkscape:connector-curvature="0"
       inkscape:label="#15">
      <title
         id="title5174">Ridge Banks</title>
    </path>
    <path
       style="fill:#2d4653;stroke-width:0.26458332"
       d="m 104.98706,56.953815 c -0.77744,0.571165 -1.6266,1.000916 -2.55295,1.271841 -1.52116,0.612915 -3.19996,0.72779 -4.734204,1.276368 -0.621496,0.375327 -1.401707,0.573475 -1.923431,1.06018 -0.522648,0.867147 -1.17239,1.696776 -1.617695,2.586754 0.05194,0.614837 -0.642601,0.959779 -0.92887,1.452336 -0.412787,0.42827 -0.742804,1.028863 -1.207074,1.349946 -0.509809,-0.02652 -1.013028,-0.03802 -1.289865,0.467324 -0.314729,0.64036 -0.855837,-0.04124 -1.302472,-0.170488 -0.680299,-0.493738 -1.533729,-0.09778 -2.305672,-0.119438 -0.601998,-0.477924 -0.192021,0.631529 -0.274997,1.00926 0.07006,0.490978 -0.17023,1.146676 0.468556,1.304727 0.496152,0.259534 0.961686,0.68751 1.476475,0.843744 0.757352,-0.297881 1.458167,0.251722 2.184419,0.421092 0.603845,0.360133 1.160851,-0.264283 1.73986,-0.427231 0.463878,-0.241261 0.93059,-0.52442 1.345584,-0.04293 0.392898,0.448259 0.867637,0.248074 1.339553,0.06793 0.396754,0.01069 0.519719,0.798068 1.15125,0.498444 0.811128,-0.322106 0.421791,0.629004 1.06811,0.375711 0.507658,0.0056 1.129995,-0.400789 1.499319,0.09999 0.423945,0.517434 0.675968,0.434442 0.768284,-0.211122 0.55762,0.0403 1.1766,-0.07863 1.69736,0.05733 0.38576,0.180523 0.79098,1.131629 1.15841,0.588095 0.27098,-0.500744 0.80065,-0.377342 1.27766,-0.380844 0.75467,0.439706 1.62211,0.812241 2.11655,1.580314 0.52594,0.563981 0.9942,1.162537 1.19607,1.920786 0.0908,0.485107 0.62928,0.996639 0.372,1.4612 -0.49747,0.84629 -0.90063,1.78721 -1.45538,2.576032 -0.51926,0.299011 -1.22339,0.524046 -1.3923,1.145421 0.14329,0.776598 0.1051,1.617037 0.36285,2.353581 0.19029,0.609039 0.81111,-0.07359 1.21655,-0.110215 0.57619,-0.234214 1.22994,-0.362646 1.54595,-0.958807 0.57529,-0.687123 1.15062,-1.374208 1.72594,-2.061301 1.83108,0.09553 3.68267,0.301642 5.50104,0.327516 1.19313,-0.550077 2.38632,-1.10004 3.57955,-1.649916 0.69874,-2.08096 1.33092,-4.196492 2.07071,-6.256135 0.10325,-0.309405 1.07612,-1.061999 0.52244,-1.036282 -1.62649,-0.0019 -3.27559,0.09942 -4.88822,0.03386 -0.4141,-0.245017 -1.12673,-0.302033 -0.90836,-0.946107 0,-0.699182 0,-1.398363 0,-2.097545 -0.56353,-0.293223 -1.15196,-0.462294 -1.7901,-0.383439 -2.02759,-2.208999 -4.1585,-4.327076 -6.02186,-6.680729 -0.93047,-0.865617 -1.86082,-1.731369 -2.79104,-2.597256 z"
       id="10"
       inkscape:connector-curvature="0"
       inkscape:label="#10">
      <title
         id="title5153">Humid Shores</title>
    </path>
  </g>
</svg>
